<svg width="217" height="175" viewBox="0 0 217 175" fill="none" xmlns="http://www.w3.org/2000/svg">
<path d="M128.154 115.517C154.061 104.591 166.213 74.7143 155.296 48.7857C144.379 22.857 114.527 10.6949 88.6199 21.6209C62.7125 32.547 50.5605 62.4237 61.4776 88.3524C72.3946 114.281 102.247 126.443 128.154 115.517Z" fill="#FFC727"/>
<path d="M79.5591 77.6982C82.5646 80.325 85.2951 83.1847 88.0255 86.0021C90.7559 88.8195 93.3593 91.7852 95.9204 94.772H91.412C98.1005 84.6464 105.318 74.9019 112.895 65.4541C116.663 60.7091 120.642 56.1123 124.664 51.5578C128.685 47.0034 132.918 42.6184 137.363 38.4453C134.591 43.9318 131.479 49.1641 128.262 54.3329C125.045 59.5016 121.658 64.5221 118.145 69.4578C111.118 79.3505 103.752 88.9677 95.8357 98.1825L93.2958 101.148L91.3485 98.1613C89.2319 94.8991 87.1153 91.5521 85.1046 88.1628C83.0938 84.7734 81.1465 81.3206 79.5591 77.6982Z" fill="white"/>
<path d="M216.101 170.035C216.203 170.775 216.084 171.528 215.758 172.199C215.432 172.871 214.915 173.43 214.271 173.807C213.627 174.184 212.886 174.361 212.142 174.316C211.397 174.271 210.683 174.006 210.089 173.555C209.495 173.103 209.049 172.485 208.806 171.779C208.563 171.074 208.536 170.312 208.726 169.59C208.916 168.868 209.317 168.219 209.876 167.725C210.435 167.231 211.128 166.915 211.867 166.816C212.357 166.747 212.855 166.776 213.333 166.901C213.811 167.026 214.26 167.244 214.654 167.544C215.047 167.843 215.378 168.217 215.626 168.645C215.874 169.072 216.036 169.545 216.101 170.035Z" fill="#FFC727"/>
<path d="M146.231 119.236C146.284 119.49 146.284 119.752 146.231 120.006C146.178 120.26 146.073 120.5 145.923 120.712C145.773 120.923 145.58 121.102 145.358 121.235C145.136 121.369 144.888 121.456 144.631 121.489C144.374 121.523 144.113 121.503 143.864 121.431C143.615 121.359 143.383 121.236 143.184 121.07C142.984 120.904 142.821 120.699 142.704 120.467C142.588 120.235 142.52 119.982 142.506 119.723C142.48 119.248 142.634 118.781 142.938 118.415C143.242 118.049 143.672 117.812 144.143 117.75C144.614 117.689 145.091 117.808 145.478 118.083C145.866 118.358 146.135 118.77 146.231 119.236Z" fill="white"/>
<path d="M101.444 2.3052C101.49 2.6695 101.428 3.03935 101.265 3.36832C101.102 3.69728 100.846 3.97075 100.528 4.15435C100.21 4.33796 99.8451 4.42351 99.4789 4.40034C99.1128 4.37716 98.7616 4.24629 98.4694 4.02409C98.1773 3.8019 97.9573 3.49826 97.8369 3.15136C97.7166 2.80446 97.7013 2.42973 97.793 2.07416C97.8846 1.71859 98.0792 1.39806 98.3522 1.15275C98.6252 0.90744 98.9646 0.748306 99.3277 0.695309C99.5726 0.659558 99.8222 0.672981 100.062 0.734873C100.302 0.796765 100.526 0.905888 100.724 1.05578C100.921 1.20567 101.086 1.39333 101.21 1.60786C101.333 1.82239 101.413 2.05946 101.444 2.3052Z" fill="white"/>
<path d="M208.968 82.2283C209.019 82.598 208.959 82.9745 208.796 83.3103C208.633 83.646 208.375 83.9258 208.053 84.1143C207.731 84.3027 207.36 84.3913 206.988 84.3688C206.616 84.3463 206.259 84.2137 205.962 83.9879C205.665 83.7621 205.442 83.4532 205.32 83.1002C205.199 82.7473 205.185 82.3664 205.28 82.0055C205.375 81.6447 205.576 81.3202 205.855 81.0732C206.135 80.8263 206.481 80.668 206.851 80.6183C207.345 80.552 207.845 80.6842 208.241 80.9859C208.638 81.2876 208.899 81.7343 208.968 82.2283Z" fill="white"/>
<path d="M16.3361 168.489C16.3621 168.964 16.2079 169.431 15.9044 169.797C15.6008 170.163 15.1704 170.4 14.6993 170.462C14.2282 170.523 13.7512 170.405 13.364 170.129C12.9767 169.854 12.7077 169.442 12.6109 168.977C12.5503 168.483 12.6845 167.986 12.985 167.59C13.2855 167.194 13.7284 166.932 14.2195 166.858C14.4656 166.826 14.7158 166.842 14.9555 166.906C15.1953 166.971 15.42 167.082 15.6167 167.233C15.8134 167.385 15.9782 167.574 16.1017 167.789C16.2252 168.005 16.3048 168.243 16.3361 168.489Z" fill="#FFC727"/>
<path d="M8.14501 92.4839C8.23816 93.2177 8.11238 93.9626 7.7835 94.625C7.45462 95.2874 6.93732 95.8376 6.29672 96.2065C5.65612 96.5753 4.92084 96.7463 4.18337 96.6979C3.4459 96.6495 2.7392 96.3839 2.15221 95.9345C1.56523 95.4851 1.12417 94.8719 0.884537 94.1722C0.644903 93.4725 0.617398 92.7175 0.805491 92.0022C0.993584 91.2869 1.38887 90.6433 1.94161 90.1523C2.49434 89.6613 3.17983 89.3449 3.91182 89.2429C4.40284 89.1744 4.90255 89.2042 5.38198 89.3305C5.86142 89.4568 6.31104 89.6771 6.70479 89.9785C7.09855 90.28 7.4286 90.6566 7.67582 91.0867C7.92305 91.5168 8.08253 91.9917 8.14501 92.4839Z" fill="#FFC727"/>
<path d="M47.5347 28.8254L52.424 31.5792C52.2154 30.0951 52.41 28.5822 52.9873 27.1993C53.5646 25.8165 54.5032 24.6147 55.7047 23.7202C59.9379 19.8224 65.0601 21.962 67.5153 16.8356L62.372 13.5098C61.7985 14.9242 60.9382 16.2043 59.8452 17.269C58.7522 18.3337 57.4505 19.1599 56.0222 19.6953C52.3817 20.7757 48.4871 22.3221 47.5347 28.8254Z" fill="#FFC727"/>
<path d="M78.2675 130.91L79.0295 125.338C77.735 126.077 76.2657 126.453 74.776 126.427C73.2862 126.4 71.831 125.973 70.5631 125.19C65.3563 122.585 65.5044 117.119 59.8108 116.717L58.6255 122.754C60.1607 122.769 61.6757 123.107 63.0721 123.746C64.4686 124.385 65.7155 125.31 66.7321 126.461C68.9756 129.342 71.9389 132.477 78.2675 130.91Z" fill="#FFC727"/>
<path d="M32.5281 60.9824L26.0513 62.8254C26.0513 62.8254 27.6599 71.2987 34.3272 69.9218C34.3272 69.9218 30.221 67.401 32.5281 60.9824Z" fill="white"/>
<path d="M40.5923 76.1081L43.4285 70.1132C43.4285 70.1132 39.9573 66.0248 34.3271 69.9225C34.3271 69.9225 40.7404 70.431 40.5923 76.1081Z" fill="white"/>
<path d="M166.339 60.4546C166.241 59.7154 166.364 58.9637 166.693 58.2946C167.021 57.6254 167.541 57.0688 168.186 56.6951C168.83 56.3215 169.571 56.1475 170.315 56.1952C171.058 56.243 171.771 56.5103 172.363 56.9634C172.955 57.4164 173.399 58.0349 173.639 58.7406C173.88 59.4463 173.906 60.2076 173.714 60.9281C173.523 61.6487 173.122 62.2963 172.563 62.7889C172.003 63.2815 171.311 63.597 170.572 63.6957C170.082 63.7612 169.583 63.7294 169.105 63.6019C168.626 63.4745 168.178 63.254 167.785 62.953C167.391 62.652 167.061 62.2764 166.813 61.8477C166.565 61.4191 166.404 60.9457 166.339 60.4546Z" fill="#FFC727"/>
<path d="M185.96 105.343L185.198 110.914C186.492 110.173 187.962 109.796 189.452 109.822C190.942 109.848 192.398 110.277 193.665 111.062C198.893 113.668 198.744 119.133 204.417 119.536L205.623 113.498C204.088 113.483 202.573 113.145 201.177 112.506C199.78 111.868 198.533 110.943 197.517 109.791C195.21 106.91 192.289 103.881 185.96 105.343Z" fill="white"/>
<path d="M178.383 30.9461L184.309 34.1659C184.309 34.1659 189.093 26.9424 183.336 23.2988C183.272 23.2988 184.521 27.9804 178.383 30.9461Z" fill="#FFC727"/>
<path d="M183.272 14.4863L176.922 16.8165C176.922 16.8165 176.562 22.1335 183.272 23.2986C183.272 23.2986 179.039 18.4476 183.272 14.4863Z" fill="#FFC727"/>
</svg>
