<?xml version="1.0" standalone="no"?>
<!DOCTYPE svg PUBLIC "-//W3C//DTD SVG 20010904//EN"
 "http://www.w3.org/TR/2001/REC-SVG-20010904/DTD/svg10.dtd">
<svg version="1.0" xmlns="http://www.w3.org/2000/svg"
 width="1024.000000pt" height="1024.000000pt" viewBox="0 0 1024.000000 1024.000000"
 preserveAspectRatio="xMidYMid meet">

<g transform="translate(0.000000,1024.000000) scale(0.100000,-0.100000)"
fill="#000000" stroke="none">
<path d="M4380 10087 c0 -3 28 -19 63 -35 79 -38 181 -106 147 -98 -70 17
-210 45 -250 51 -48 6 -622 26 -627 21 -2 -2 31 -17 74 -34 l77 -30 -60 -7
c-129 -15 -246 -38 -404 -80 -197 -52 -265 -65 -341 -65 -81 0 -209 19 -243
36 -16 8 -31 12 -34 10 -7 -8 55 -90 110 -145 l55 -55 -111 -39 c-61 -22 -149
-53 -196 -71 -82 -30 -91 -31 -240 -31 -126 1 -171 5 -243 23 -117 29 -192 70
-210 114 -11 25 -36 -22 -43 -79 -9 -71 11 -219 41 -308 13 -38 22 -71 21 -73
-2 -1 -22 11 -45 28 -83 61 -152 182 -163 285 -3 30 -4 29 -40 -26 -40 -62
-69 -139 -89 -239 -14 -68 -17 -387 -4 -438 13 -53 -14 -7 -41 68 -26 75 -45
196 -38 247 8 55 -46 -73 -62 -149 -24 -111 -14 -323 20 -451 34 -127 77 -239
120 -310 l35 -57 -46 32 c-62 45 -127 119 -158 181 l-26 52 6 -55 c15 -132 73
-290 145 -395 47 -68 145 -170 198 -205 l47 -32 -55 7 c-78 9 -130 24 -168 45
-17 11 -32 17 -32 14 0 -19 82 -123 133 -169 57 -52 182 -125 214 -125 10 0 7
-13 -12 -51 -45 -88 -50 -237 -13 -329 l15 -35 6 59 c4 36 18 85 38 125 l33
66 12 -70 c15 -87 43 -158 90 -230 35 -52 57 -70 36 -28 -10 19 -24 83 -18 83
1 0 20 -33 41 -72 20 -40 59 -103 86 -141 48 -66 49 -68 43 -125 -4 -35 -2
-67 4 -79 11 -19 8 -21 -37 -27 -27 -4 -82 -23 -123 -44 l-73 -37 2 -74 c2
-70 4 -76 37 -110 26 -27 46 -67 80 -162 89 -252 164 -365 280 -420 l59 -28
67 -168 c37 -92 84 -202 103 -243 l36 -75 -89 -42 c-134 -64 -480 -210 -578
-244 -48 -17 -110 -44 -139 -60 -100 -57 -212 -205 -268 -352 -85 -227 -180
-633 -197 -840 l-12 -148 -30 -16 c-41 -21 -74 -52 -94 -88 -13 -23 -17 -58
-18 -150 -1 -165 1 -156 -48 -229 -67 -97 -82 -131 -104 -241 -17 -87 -36
-132 -135 -335 -63 -129 -118 -245 -122 -258 -4 -13 -9 -22 -11 -20 -2 3 5 36
16 74 54 184 81 355 87 539 5 169 3 191 -26 360 -65 381 -77 599 -46 811 22
145 90 404 189 722 121 384 140 480 140 707 0 175 -1 187 -46 410 -77 378 -96
591 -74 830 9 91 11 101 39 126 26 24 29 33 29 85 0 66 10 84 45 84 13 0 39 7
58 14 l35 15 0 215 c0 248 8 228 -110 265 -47 15 -93 21 -167 21 -57 0 -102 3
-101 8 1 4 -1 33 -6 64 -9 73 -50 118 -99 109 -5 -1 -6 3 -2 9 12 19 38 10 76
-29 22 -21 39 -37 39 -36 0 2 -9 24 -20 49 -38 89 -106 66 -129 -44 -6 -28
-11 -98 -11 -156 0 -87 -4 -112 -21 -146 -87 -170 -90 -496 -5 -498 5 0 3 6
-3 14 -9 11 -9 15 1 20 7 3 4 4 -7 3 -15 -1 -19 3 -17 18 5 28 11 32 23 15 9
-13 10 -13 7 0 -3 8 -15 17 -29 21 -13 4 -17 8 -9 8 12 1 11 4 -3 12 -9 6 -15
15 -12 20 4 5 11 6 17 3 7 -4 8 -2 4 5 -4 6 -11 9 -15 7 -4 -3 -8 4 -8 15 -2
21 13 26 20 7 3 -7 4 -1 3 15 -2 15 -6 30 -9 34 -14 13 -7 64 9 70 13 5 13 7
2 14 -11 7 -10 11 2 20 11 8 12 12 2 16 -6 2 -10 9 -6 14 3 5 7 19 9 30 9 44
14 28 14 -45 0 -43 -4 -74 -9 -71 -5 3 -11 1 -14 -4 -4 -5 2 -8 11 -7 18 3 19
15 22 205 1 19 4 31 8 27 4 -3 7 -71 8 -149 1 -78 5 -150 9 -159 5 -11 4 -18
-2 -18 -5 0 -13 12 -16 26 -9 34 -16 27 -9 -8 4 -21 11 -27 32 -27 14 1 56 -7
93 -16 l68 -17 0 -50 c0 -54 13 -88 34 -88 8 0 17 -7 20 -16 9 -25 7 -72 -4
-79 -5 -3 -10 1 -10 9 0 17 -20 17 -32 1 -5 -6 -8 -5 -8 3 0 7 -4 11 -10 7 -5
-3 -26 2 -47 11 -21 8 -63 22 -93 30 -113 30 -195 57 -205 69 -5 6 -17 10 -25
7 -13 -4 -13 -3 -2 11 11 13 12 27 4 64 -8 35 -8 50 1 55 9 6 9 8 0 8 -8 0 -9
9 -4 28 4 15 6 38 4 52 -2 14 -3 45 -2 70 0 25 1 234 2 465 1 435 5 484 42
511 10 8 15 14 9 14 -5 -1 -20 -10 -33 -21 -35 -29 -39 -105 -40 -727 -1 -435
2 -539 13 -566 13 -32 22 -36 153 -81 76 -26 144 -49 152 -52 8 -3 11 -1 7 5
-4 6 -72 32 -151 57 -80 25 -145 48 -145 51 0 7 42 -4 160 -43 128 -41 236
-67 255 -60 15 6 20 -27 34 -269 11 -180 30 -312 82 -583 87 -447 79 -530
-106 -1134 -229 -752 -241 -914 -113 -1612 14 -77 13 -325 -2 -435 -13 -97
-52 -277 -85 -395 -12 -44 -39 -141 -59 -215 -41 -149 -70 -201 -156 -283 -28
-27 -57 -62 -66 -78 -19 -37 -21 -158 -4 -249 9 -48 9 -65 0 -68 -33 -11 -138
-91 -157 -121 -26 -39 -30 -101 -12 -211 10 -60 9 -84 -12 -197 -19 -103 -24
-163 -24 -308 0 -99 3 -207 7 -240 l7 -60 -47 -30 c-61 -38 -170 -150 -200
-203 l-23 -42 5090 0 5091 0 0 788 0 787 -63 170 c-168 448 -352 844 -495
1060 -43 66 -84 130 -91 142 -21 41 -29 113 -20 185 14 114 -8 144 -133 183
-31 9 -68 29 -81 44 -25 25 -26 30 -29 201 -3 164 -5 178 -29 230 -18 39 -47
74 -97 118 -38 35 -75 75 -80 90 -6 15 -13 61 -15 102 -12 185 -115 483 -224
648 -55 84 -162 185 -233 222 -38 19 -246 84 -560 175 -107 31 -323 99 -480
150 -157 51 -411 129 -565 174 -310 89 -346 101 -579 201 -88 38 -200 80 -248
94 -86 25 -87 25 -175 117 -48 50 -87 95 -86 99 1 5 31 53 66 107 164 252 201
400 163 645 -34 214 -71 310 -139 359 -23 17 -41 36 -39 41 33 116 72 280 81
338 7 41 23 110 37 152 13 43 24 99 24 124 l0 47 23 -21 c22 -21 54 -31 43
-14 -3 5 -9 44 -15 88 -6 43 -19 105 -29 137 l-20 58 25 -23 c14 -13 36 -42
50 -65 14 -24 27 -43 30 -43 4 0 3 46 0 103 -6 111 -43 270 -81 349 -13 26
-20 48 -17 48 7 0 90 -102 116 -143 10 -15 19 -26 21 -24 2 2 -1 30 -7 63 -16
89 -85 257 -139 337 -45 67 -142 169 -200 210 l-25 18 25 -7 c47 -11 145 -61
173 -88 41 -38 43 -32 5 17 -111 145 -210 218 -330 244 -64 13 -78 19 -72 32
4 9 13 43 21 76 37 149 -22 328 -169 523 -39 50 -72 92 -73 92 -2 0 12 -30 31
-67 44 -89 64 -171 63 -258 l0 -70 -23 65 c-45 129 -110 223 -243 351 -96 92
-187 156 -303 214 -81 40 -81 39 -5 -20 71 -55 151 -133 189 -185 28 -38 96
-156 96 -166 0 -2 -33 30 -72 69 -81 81 -252 199 -368 254 -94 45 -285 108
-370 122 -36 7 -77 14 -92 17 -16 3 -28 3 -28 1z m331 -2131 l-54 -55 54 -15
c30 -9 78 -20 108 -26 30 -6 57 -13 60 -16 3 -3 -12 -3 -34 1 l-40 8 21 -24
c35 -41 84 -121 78 -130 -2 -5 2 -22 11 -40 18 -34 14 -49 -10 -29 -16 13 -21
0 -6 -15 6 -6 17 -27 26 -48 l15 -38 -26 7 c-29 7 -28 -1 4 -38 10 -13 11 -18
3 -18 -7 0 -10 -4 -7 -9 4 -5 0 -11 -6 -14 -9 -3 -7 -11 7 -27 14 -16 16 -22
5 -18 -87 31 -77 18 23 -30 79 -39 289 -173 333 -214 44 -40 137 -260 118
-277 -5 -4 -71 -36 -147 -70 -120 -54 -143 -61 -165 -52 -74 29 -399 47 -604
34 -71 -4 -128 -5 -128 -2 0 10 163 76 240 97 150 41 447 88 483 76 37 -12 8
14 -56 49 -89 49 -178 82 -284 105 -91 20 -125 16 -60 -6 19 -7 22 -10 7 -7
-96 19 -125 17 -215 -13 -119 -40 -562 -229 -656 -280 -104 -56 -182 -79 -220
-65 -26 10 -29 9 -29 -8 0 -10 -4 -19 -9 -19 -7 0 -8 -17 -2 -37 1 -2 1 -6 0
-9 -1 -3 12 -20 28 -37 l28 -30 -33 22 c-43 30 -53 51 -43 92 5 19 11 57 14
84 5 49 5 49 -8 20 -19 -41 -18 -31 5 60 34 132 21 128 -16 -5 -42 -150 -40
-183 14 -238 21 -21 52 -49 69 -62 18 -14 33 -28 33 -31 0 -3 -11 -18 -25 -33
-24 -26 -24 -26 -172 -25 -81 1 -135 4 -119 8 37 8 36 18 -3 43 -31 20 -42 13
-19 -10 7 -7 8 -12 2 -12 -14 0 -84 78 -84 94 0 7 -12 31 -28 52 -15 21 -33
51 -39 67 -7 15 -17 27 -23 27 -12 0 -12 -2 0 -35 10 -26 9 -26 -31 9 -31 26
-71 44 -158 71 -101 32 -280 91 -348 116 -21 8 -16 15 65 92 283 274 357 325
786 543 70 36 130 63 133 60 3 -3 15 1 27 9 11 8 31 15 44 15 15 0 21 4 16 12
-5 7 -3 8 6 3 7 -4 15 -4 19 1 3 5 26 20 50 33 69 37 218 102 201 88 -8 -6
-16 -19 -18 -27 -2 -8 -13 -26 -25 -39 l-22 -25 25 16 c15 9 73 35 130 58 58
24 121 54 140 68 l35 25 -24 -26 c-20 -22 -21 -27 -8 -27 37 0 216 73 272 110
l60 41 -58 -57 c-41 -40 -51 -55 -35 -50 13 4 48 14 78 22 66 17 205 83 240
112 44 37 36 24 -19 -32z m-3820 -217 l24 -20 -30 17 c-39 24 -40 24 -28 24 6
0 21 -9 34 -21z m2730 -32 c-6 -8 -7 -18 -3 -22 4 -5 2 -5 -4 -2 -7 4 -34 -5
-60 -20 -62 -34 -52 -22 17 22 63 38 65 39 50 22z m-2793 -40 c2 -31 0 -38 -8
-27 -8 11 -10 -2 -8 -49 1 -41 -3 -66 -10 -69 -7 -2 -10 14 -7 51 7 122 27
180 33 94z m42 -18 c12 -43 -1 -109 -22 -109 -6 0 -7 7 -4 16 3 9 6 42 6 75 0
32 2 59 5 59 2 0 9 -18 15 -41z m24 25 c3 -8 2 -12 -4 -9 -6 3 -10 10 -10 16
0 14 7 11 14 -7z m1889 -21 c-7 -2 -19 -2 -25 0 -7 3 -2 5 12 5 14 0 19 -2 13
-5z m84 -9 c-3 -3 -12 -4 -19 -1 -8 3 -5 6 6 6 11 1 17 -2 13 -5z m-279 -11
c-10 -2 -26 -2 -35 0 -10 3 -2 5 17 5 19 0 27 -2 18 -5z m109 1 c-3 -3 -12 -4
-19 -1 -8 3 -5 6 6 6 11 1 17 -2 13 -5z m286 -11 c-7 -2 -19 -2 -25 0 -7 3 -2
5 12 5 14 0 19 -2 13 -5z m497 2 c0 -2 -10 -9 -22 -15 -22 -11 -22 -10 -4 4
21 17 26 19 26 11z m-2568 -55 c3 -30 0 -35 -21 -38 -20 -3 -23 -1 -17 15 4
10 10 31 13 46 7 35 20 23 25 -23z m2141 43 c-7 -2 -19 -2 -25 0 -7 3 -2 5 12
5 14 0 19 -2 13 -5z m167 -13 c22 -11 40 -23 40 -25 0 -5 -79 32 -89 41 -11
10 14 2 49 -16z m-123 4 c-3 -3 -12 -4 -19 -1 -8 3 -5 6 6 6 11 1 17 -2 13 -5z
m333 -9 c0 -2 -13 -11 -30 -20 -38 -19 -40 -11 -2 9 31 17 32 18 32 11z
m-2303 -162 c-2 -16 -4 -3 -4 27 0 30 2 43 4 28 2 -16 2 -40 0 -55z m1180 35
c-3 -8 -6 -5 -6 6 -1 11 2 17 5 13 3 -3 4 -12 1 -19z m0 -125 c-2 -16 -4 -5
-4 22 0 28 2 40 4 28 2 -13 2 -35 0 -50z m0 -70 c-3 -10 -5 -4 -5 12 0 17 2
24 5 18 2 -7 2 -21 0 -30z m3681 -164 c70 -34 108 -80 132 -156 40 -128 61
-254 61 -369 1 -179 -34 -279 -177 -502 -44 -67 -99 -154 -122 -192 -72 -116
-146 -144 -264 -98 -27 10 -48 14 -49 10 -1 -4 -4 7 -9 25 -4 17 -4 98 1 180
4 81 12 249 19 373 17 349 36 456 90 515 20 22 57 67 82 100 102 134 148 156
236 114z m-3671 -41 c-3 -7 -5 -2 -5 12 0 14 2 19 5 13 2 -7 2 -19 0 -25z m0
-225 c-2 -16 -4 -5 -4 22 0 28 2 40 4 28 2 -13 2 -35 0 -50z m1200 -65 c-3 -8
-6 -5 -6 6 -1 11 2 17 5 13 3 -3 4 -12 1 -19z m-1215 -30 c-6 -6 -7 0 -4 19 5
21 7 23 10 9 2 -10 0 -22 -6 -28z m1215 -25 c-3 -10 -5 -4 -5 12 0 17 2 24 5
18 2 -7 2 -21 0 -30z m1927 -128 c4 -88 9 -173 11 -190 2 -16 4 -93 5 -170 1
-77 5 -161 9 -187 5 -26 4 -45 0 -43 -4 3 -10 22 -14 43 -7 41 -25 79 -25 52
0 -8 7 -44 15 -79 16 -68 14 -92 -3 -42 -6 17 -12 31 -14 31 -2 0 -2 -30 -1
-66 2 -55 -1 -65 -13 -60 -12 5 -14 1 -8 -17 4 -12 8 -40 9 -62 1 -22 5 -51 9
-65 l7 -25 -16 25 c-16 25 -16 25 -11 -15 4 -28 2 -35 -4 -25 -5 8 -10 23 -10
33 0 9 -4 17 -9 17 -5 0 -5 -16 0 -37 12 -52 10 -76 -3 -33 -15 49 -22 18 -9
-35 6 -24 11 -59 10 -77 0 -31 -2 -29 -16 17 -16 54 -39 89 -29 45 3 -14 8
-48 10 -76 3 -28 6 -55 7 -60 9 -51 -13 -36 -31 21 -7 22 -15 34 -17 28 -3 -7
3 -35 12 -63 9 -28 15 -56 12 -63 -2 -6 -7 3 -11 21 -4 17 -11 32 -16 32 -5 0
-4 -15 1 -32 5 -18 8 -55 8 -83 l-1 -50 -9 55 c-4 30 -15 71 -24 90 -13 30
-15 31 -10 8 5 -28 -8 -39 -19 -15 -3 6 -3 -24 0 -68 4 -57 2 -76 -5 -65 -6 8
-11 25 -11 37 0 12 -5 25 -11 29 -8 5 -9 -11 -4 -55 8 -73 -9 -85 -19 -13 -7
53 -26 95 -24 52 1 -14 0 -52 -1 -85 l-3 -60 -13 40 -13 40 -2 -50 -2 -50 -9
44 c-12 61 -19 63 -19 5 1 -55 -17 -140 -19 -93 -1 14 -13 36 -28 50 -14 13
-22 17 -17 9 11 -18 12 -130 2 -124 -5 3 -8 18 -8 33 0 28 -20 81 -32 81 -8 0
2 -42 15 -58 5 -7 7 -15 3 -19 -3 -3 -6 -1 -6 5 0 7 -4 12 -10 12 -5 0 -9 -8
-8 -17 3 -38 -2 -76 -9 -69 -5 4 -14 22 -20 39 l-13 32 3 -37 c2 -21 0 -38 -4
-38 -4 0 -10 -10 -12 -22 -3 -18 -4 -18 -3 3 1 16 -3 26 -12 26 -10 0 -12 -9
-7 -35 4 -23 3 -32 -4 -27 -6 3 -11 14 -11 23 0 9 -5 24 -11 32 -11 15 -10 9
6 -65 3 -11 -2 -5 -11 14 -19 43 -27 36 -12 -12 13 -43 4 -59 -17 -31 -8 10
-15 15 -15 10 0 -6 12 -23 27 -38 26 -28 21 -40 -7 -15 -8 6 -4 0 9 -15 14
-16 22 -30 19 -33 -3 -3 -23 13 -43 37 -21 24 -35 34 -31 23 5 -11 9 -30 11
-43 2 -22 2 -22 -18 -5 -20 18 -20 17 -13 -16 8 -45 -1 -35 -19 20 -13 38 -14
40 -10 10 3 -19 12 -48 20 -64 17 -35 18 -37 6 -37 -4 0 -16 17 -25 38 -12 27
-14 30 -11 10 3 -14 8 -34 11 -43 6 -15 4 -15 -15 -3 -12 7 -25 25 -28 41 -3
15 -9 27 -14 27 -15 0 -10 -21 15 -64 13 -23 27 -52 30 -66 l7 -25 -20 25
c-11 14 -23 37 -26 52 -4 15 -11 30 -16 33 -13 8 -11 -4 6 -61 21 -68 18 -88
-5 -34 -16 38 -19 41 -21 20 0 -14 -1 -36 0 -50 l1 -25 -15 25 -16 25 6 -35 6
-35 -29 32 c-33 38 -49 44 -28 11 7 -13 16 -39 20 -58 6 -34 5 -33 -29 20 -40
62 -47 56 -10 -9 28 -48 30 -55 14 -45 -8 5 -8 1 0 -14 12 -23 15 -59 4 -48
-5 4 -18 35 -30 69 -21 58 -22 59 -17 20 4 -31 2 -43 -7 -43 -9 0 -8 -5 3 -17
8 -10 19 -31 26 -46 l12 -28 -37 26 c-21 14 -44 25 -53 25 -9 0 -11 -3 -4 -8
6 -4 14 -16 18 -26 7 -20 7 -20 -15 0 -22 19 -22 19 -15 -3 6 -18 4 -21 -16
-16 -21 5 -21 4 5 -17 32 -25 30 -38 -3 -20 -29 16 -36 6 -16 -22 29 -41 19
-53 -20 -23 l-36 28 7 -24 c4 -13 14 -32 23 -41 11 -13 12 -18 2 -18 -6 0 -21
11 -32 26 -11 14 -23 23 -26 20 -2 -3 0 -11 5 -18 15 -19 22 -77 9 -73 -6 2
-25 6 -43 9 -27 4 -31 3 -26 -12 5 -14 3 -15 -8 -4 -19 17 -34 15 -19 -3 7 -8
8 -15 2 -15 -5 0 -15 7 -22 15 -9 11 -15 12 -25 2 -11 -10 -9 -17 13 -41 l27
-28 -32 16 c-41 21 -49 20 -27 -1 12 -12 13 -18 5 -21 -7 -2 -19 5 -27 17 -19
26 -38 28 -22 1 25 -39 -5 -34 -43 9 -44 49 -49 46 -18 -8 l21 -36 -36 40
c-19 22 -35 35 -36 28 0 -7 -7 -10 -16 -6 -12 4 -11 -1 5 -28 41 -67 15 -52
-43 24 -15 21 -30 36 -33 33 -3 -3 4 -17 16 -32 11 -15 21 -32 21 -40 0 -14
-54 37 -63 61 -4 8 -10 15 -15 15 -10 0 -8 -38 2 -62 4 -10 6 -22 4 -29 -2 -6
-15 13 -28 43 -29 64 -29 63 -36 56 -3 -4 0 -16 6 -28 6 -12 9 -24 6 -27 -3
-3 -15 14 -26 38 -16 36 -20 40 -20 19 -1 -21 -5 -16 -24 23 -28 57 -41 72
-33 37 4 -15 0 -33 -9 -45 -15 -19 -15 -18 -11 20 4 40 -9 85 -24 85 -4 0 -3
-15 2 -32 10 -36 3 -72 -13 -62 -5 4 -7 19 -4 35 3 15 1 31 -4 34 -6 3 -10 1
-10 -6 0 -7 -3 -9 -7 -6 -9 10 18 57 30 50 5 -3 4 3 -2 14 -10 19 -3 22 121
49 129 28 167 48 111 57 -27 4 -27 4 5 6 17 0 32 5 32 10 0 11 -84 43 -107 41
-64 -7 -433 2 -433 10 0 5 8 7 18 3 13 -5 12 -1 -5 16 -27 25 -29 51 -8 91 19
37 52 60 90 61 27 2 25 3 -10 9 l-40 7 50 2 c28 2 195 4 373 7 178 2 328 6
333 10 6 3 8 12 5 20 -3 8 0 14 7 14 14 1 -22 30 -36 30 -5 0 -3 -7 4 -17 13
-15 12 -15 -16 -1 -23 12 -34 13 -54 4 -19 -8 -25 -8 -29 3 -4 11 -6 11 -12 0
-7 -10 -25 -11 -98 -1 -122 16 -259 15 -358 -4 -74 -13 -86 -13 -112 0 -16 8
-59 18 -96 22 -61 6 -67 9 -64 28 2 14 20 29 51 45 33 16 55 37 73 68 15 24
28 42 30 40 2 -2 6 -19 8 -37 8 -67 40 -76 211 -55 47 5 79 2 145 -15 47 -12
101 -23 120 -26 53 -6 83 -12 104 -20 15 -6 17 -4 11 6 -6 10 -4 12 11 6 10
-5 40 -16 65 -25 25 -9 59 -25 75 -35 l29 -19 -20 23 -20 23 30 -16 c17 -8 49
-34 72 -56 23 -23 39 -33 36 -24 -6 16 -5 17 12 3 17 -14 18 -13 12 5 l-7 20
16 -20 c15 -19 16 -18 9 19 -7 45 -45 125 -81 172 -13 17 -20 35 -16 39 4 3 2
5 -4 3 -6 -1 -21 8 -33 22 -21 24 -22 24 -11 2 9 -19 4 -18 -35 13 -26 19 -52
35 -58 35 -7 0 -4 -5 5 -11 10 -5 23 -20 29 -32 l12 -22 -24 21 c-13 12 -36
29 -52 39 -26 17 -27 17 -20 -1 6 -18 5 -18 -16 0 -21 19 -21 19 -15 1 7 -17
5 -16 -22 2 -16 12 -42 24 -58 28 -26 5 -28 4 -17 -9 12 -14 10 -15 -18 -5
-17 6 -34 15 -37 20 -3 5 -10 9 -16 9 -6 0 -3 -10 8 -21 19 -22 19 -22 -3 -10
-12 6 -25 16 -28 21 -3 5 -16 15 -27 21 -18 10 -20 9 -15 -5 6 -15 4 -15 -18
0 -16 10 -25 12 -25 5 0 -6 -13 -2 -29 10 -16 12 -34 18 -40 15 -6 -4 -20 -2
-32 5 -17 9 -20 8 -14 -2 6 -9 3 -10 -11 -4 -10 4 -28 7 -39 6 -11 -1 -37 -2
-57 -3 -21 0 -38 -4 -38 -9 0 -5 -10 -9 -21 -9 -18 0 -16 4 15 25 20 14 41 25
47 25 23 0 191 99 231 137 34 32 45 91 24 130 -14 27 -15 27 -10 -27 5 -59 4
-62 -41 -100 -26 -22 -27 -22 -11 -3 18 22 18 23 -6 32 -13 5 -52 12 -86 15
-52 5 -71 3 -110 -15 -81 -36 -144 -52 -219 -53 -39 -1 -70 1 -68 4 2 4 -11
14 -30 23 -19 9 -42 31 -51 48 -17 34 -17 31 11 214 8 55 24 219 36 364 23
294 20 284 96 296 76 11 158 -46 208 -146 20 -38 37 -69 40 -69 7 0 -66 155
-76 158 -5 2 -7 7 -4 12 7 12 -22 77 -45 100 -11 11 -16 20 -12 20 18 0 42
-38 82 -130 23 -52 52 -116 66 -142 27 -53 29 -62 12 -52 -7 4 -8 3 -4 -5 4
-6 11 -9 15 -6 5 2 22 -18 40 -45 44 -69 111 -134 162 -161 24 -12 80 -28 124
-35 44 -6 66 -12 49 -13 -55 -2 -148 20 -191 45 -39 23 -153 138 -153 156 0 4
-5 8 -11 8 -31 0 128 -168 189 -198 61 -31 135 -44 270 -46 242 -4 409 25 525
89 66 37 54 42 -14 6 -30 -16 -74 -32 -99 -36 -25 -4 -49 -10 -54 -13 -13 -7
-50 -10 -251 -15 l-180 -5 155 8 c234 11 385 40 457 88 13 8 30 12 38 8 9 -3
14 -2 10 3 -3 5 11 19 31 32 20 12 50 43 66 68 32 51 86 211 113 339 10 45 22
82 27 82 6 0 35 24 66 54 32 30 88 78 126 106 140 105 206 161 206 177 0 9 2
14 4 12 2 -2 7 -76 10 -164z m-961 148 c-18 -2 -48 -2 -65 0 -18 2 -4 4 32 4
36 0 50 -2 33 -4z m599 -17 c10 -15 -1 -27 -15 -16 -7 6 -21 17 -32 25 -19 14
-18 15 10 9 17 -4 33 -12 37 -18z m-764 7 c-10 -2 -26 -2 -35 0 -10 3 -2 5 17
5 19 0 27 -2 18 -5z m-1901 -9 c-3 -3 -12 -4 -19 -1 -8 3 -5 6 6 6 11 1 17 -2
13 -5z m1798 0 c-97 -21 -187 -35 -192 -31 -2 3 19 10 49 16 29 5 62 12 73 14
11 3 36 5 55 5 19 0 26 -2 15 -4z m-1678 -20 c-3 -3 -12 -4 -19 -1 -8 3 -5 6
6 6 11 1 17 -2 13 -5z m2803 2 c0 -2 -7 -7 -16 -10 -8 -3 -12 -2 -9 4 6 10 25
14 25 6z m-533 -12 c-3 -3 -12 -4 -19 -1 -8 3 -5 6 6 6 11 1 17 -2 13 -5z
m-2184 -11 c-13 -2 -35 -2 -50 0 -16 2 -5 4 22 4 28 0 40 -2 28 -4z m1910 0
c-7 -2 -21 -2 -30 0 -10 3 -4 5 12 5 17 0 24 -2 18 -5z m123 -11 c-16 -2 -32
0 -37 5 -5 5 7 7 29 4 34 -5 35 -6 8 -9z m-2198 1 c-10 -2 -26 -2 -35 0 -10 3
-2 5 17 5 19 0 27 -2 18 -5z m1960 0 c-16 -2 -40 -2 -55 0 -16 2 -3 4 27 4 30
0 43 -2 28 -4z m-2075 -10 c-7 -2 -21 -2 -30 0 -10 3 -4 5 12 5 17 0 24 -2 18
-5z m1804 1 c-3 -3 -12 -4 -19 -1 -8 3 -5 6 6 6 11 1 17 -2 13 -5z m166 -1
c-7 -2 -21 -2 -30 0 -10 3 -4 5 12 5 17 0 24 -2 18 -5z m420 0 c-7 -2 -19 -2
-25 0 -7 3 -2 5 12 5 14 0 19 -2 13 -5z m507 -8 c-14 -8 -29 -14 -35 -14 -5 0
1 6 15 14 14 8 30 14 35 14 6 0 -1 -6 -15 -14z m-1012 -2 c-10 -2 -26 -2 -35
0 -10 3 -2 5 17 5 19 0 27 -2 18 -5z m-61 -9 c-3 -3 -12 -4 -19 -1 -8 3 -5 6
6 6 11 1 17 -2 13 -5z m-1132 -33 c24 -9 18 -10 -30 -5 -33 4 -98 10 -145 15
-80 7 -79 7 30 4 63 -2 129 -9 145 -14z m1499 -13 c8 -14 7 -22 -7 -35 -18
-17 -19 -17 -38 6 -15 18 -17 27 -8 38 15 17 38 13 53 -9z m123 10 c0 -7 1
-29 2 -48 2 -26 4 -30 10 -17 4 10 11 19 16 19 6 0 9 3 8 8 -1 4 12 4 30 0 35
-7 35 -6 18 -70 -18 -66 -69 -130 -131 -164 -43 -23 -71 -30 -139 -35 -114 -8
-239 2 -281 23 -35 17 -35 17 -13 -2 33 -29 140 -46 258 -40 104 6 162 23 224
67 33 24 101 121 130 185 20 47 21 47 58 40 21 -4 47 -8 58 -9 19 -2 20 -10
23 -118 5 -204 -58 -418 -142 -482 -93 -71 -266 -105 -533 -105 -208 0 -250
10 -323 78 -44 40 -52 53 -56 92 -8 78 -44 193 -76 243 -16 26 -33 47 -37 47
-3 0 -19 12 -35 26 -26 25 -28 31 -21 78 3 28 10 55 15 60 5 5 27 -5 53 -27
24 -20 71 -48 103 -62 65 -29 98 -28 142 4 15 10 30 19 35 19 4 0 21 2 38 6
l30 6 -16 31 c-15 29 -15 32 1 50 26 29 75 57 138 79 l56 19 0 -52 c0 -63 28
-127 66 -154 69 -48 156 -53 209 -11 51 40 86 147 66 201 -8 21 -8 27 3 27 8
0 14 -6 13 -12z m478 2 c-3 -5 -12 -10 -18 -10 -7 0 -6 4 3 10 19 12 23 12 15
0z m-407 -6 c12 -4 22 -11 22 -16 0 -5 -5 -6 -12 -2 -6 4 -25 11 -42 15 -19 4
-23 7 -11 8 11 0 30 -2 43 -5z m342 -34 c-6 -11 -13 -20 -16 -20 -2 0 0 9 6
20 6 11 13 20 16 20 2 0 0 -9 -6 -20z m-2231 6 c-8 -9 -149 -16 -149 -8 0 4
35 8 77 10 42 1 75 0 72 -2z m363 -26 c25 -17 52 -38 60 -48 7 -9 -3 -5 -22 9
-19 14 -53 36 -75 47 -22 12 -33 21 -24 22 8 0 36 -14 61 -30z m68 -14 l25
-29 -32 23 c-18 13 -33 31 -33 39 0 8 3 11 8 6 4 -6 18 -23 32 -39z m-743 28
c-3 -3 -12 -4 -19 -1 -8 3 -5 6 6 6 11 1 17 -2 13 -5z m396 -1 c-13 -2 -35 -2
-50 0 -16 2 -5 4 22 4 28 0 40 -2 28 -4z m-290 -10 c-7 -2 -21 -2 -30 0 -10 3
-4 5 12 5 17 0 24 -2 18 -5z m-248 -13 c-27 -12 -43 -12 -25 0 8 5 22 9 30 9
10 0 8 -3 -5 -9z m2662 -32 c-3 -7 -5 -2 -5 12 0 14 2 19 5 13 2 -7 2 -19 0
-25z m-2178 -14 c-21 -26 -17 -104 9 -154 34 -64 57 -86 108 -100 38 -11 51
-10 90 5 49 18 84 62 84 103 0 13 4 21 9 17 5 -3 8 -16 5 -30 -3 -19 -1 -23
11 -19 12 5 13 9 4 20 -8 10 -8 14 -1 14 6 0 18 -12 26 -27 13 -26 12 -32 -13
-78 -42 -75 -81 -137 -104 -162 -33 -37 -3 -26 55 19 29 23 55 45 58 48 3 4
13 9 23 13 13 5 17 1 17 -21 0 -35 -43 -190 -63 -228 -47 -89 -131 -118 -342
-117 -136 0 -308 22 -328 42 -5 5 16 3 46 -4 l55 -13 -5 57 c-5 48 -1 66 26
125 17 38 44 90 60 116 l29 48 -29 21 c-16 12 -28 25 -27 29 1 4 -6 20 -16 35
-10 15 -16 30 -13 34 4 3 -3 20 -15 37 -25 36 -17 29 43 -39 24 -27 34 -41 21
-31 -12 11 -22 14 -22 8 0 -31 150 -82 243 -82 99 0 231 42 266 84 18 21 5 20
-27 -2 -42 -29 -106 -51 -182 -63 -63 -9 -79 -8 -141 11 -78 23 -144 78 -155
127 -3 16 -14 54 -23 86 l-18 57 24 6 c13 4 27 4 30 0 4 -3 -3 -6 -15 -6 -26
0 -27 -11 -7 -51 14 -26 18 -28 38 -17 12 7 25 11 29 10 4 -1 16 10 27 25 12
14 21 23 21 19 0 -4 10 -2 21 5 15 8 19 8 15 0 -4 -6 -2 -11 3 -11 6 0 11 -7
11 -17 0 -22 6 -14 14 20 l6 27 -77 2 -78 2 85 6 c47 3 89 7 94 8 5 1 3 -5 -5
-14z m-568 -14 c24 0 28 -6 44 -62 9 -35 28 -90 41 -123 14 -33 32 -107 40
-165 14 -96 44 -233 61 -276 13 -34 -89 49 -133 108 -68 93 -125 260 -138 410
-8 84 5 123 37 114 12 -3 34 -6 48 -6z m1182 3 c-13 -2 -33 -2 -45 0 -13 2 -3
4 22 4 25 0 35 -2 23 -4z m1560 -8 c-3 -9 -8 -14 -10 -11 -3 3 -2 9 2 15 9 16
15 13 8 -4z m-1752 -12 c13 -16 12 -17 -3 -4 -10 7 -18 15 -18 17 0 8 8 3 21
-13z m727 -23 c-22 -38 -48 -60 -48 -40 0 6 5 10 10 10 6 0 9 3 8 8 -2 6 42
61 50 62 1 0 -8 -18 -20 -40z m-948 14 c11 -12 10 -18 -3 -32 -16 -15 -18 -15
-33 0 -19 18 -12 48 9 48 8 0 20 -7 27 -16z m101 -1 c13 -16 12 -17 -3 -4 -10
7 -18 15 -18 17 0 8 8 3 21 -13z m819 7 c0 -5 -5 -10 -11 -10 -5 0 -7 5 -4 10
3 6 8 10 11 10 2 0 4 -4 4 -10z m-1285 -21 c8 14 35 14 35 0 0 -5 -4 -8 -9 -4
-5 3 -12 1 -16 -5 -11 -18 -32 -11 -38 13 -6 20 -5 21 8 4 8 -12 15 -14 20 -8z
m772 -59 c-74 -7 -86 -16 -88 -65 -1 -19 -3 -23 -6 -12 -8 31 6 67 30 77 12 5
47 8 77 8 l55 -1 -68 -7z m-220 -82 c-2 -13 -4 -3 -4 22 0 25 2 35 4 23 2 -13
2 -33 0 -45z m513 -169 c28 -56 82 -130 140 -194 30 -32 36 -44 20 -34 -32 21
-113 119 -154 190 -36 61 -76 160 -76 187 1 9 11 -10 24 -44 13 -33 34 -80 46
-105z m-1333 94 c-3 -10 -5 -2 -5 17 0 19 2 27 5 18 2 -10 2 -26 0 -35z m820
-5 c-3 -8 -6 -5 -6 6 -1 11 2 17 5 13 3 -3 4 -12 1 -19z m-810 -50 c-3 -7 -5
-2 -5 12 0 14 2 19 5 13 2 -7 2 -19 0 -25z m-152 -133 c18 -38 54 -94 81 -124
30 -33 40 -50 26 -42 -43 23 -135 176 -156 261 l-6 25 12 -25 c6 -14 26 -56
43 -95z m162 53 c-3 -7 -5 -2 -5 12 0 14 2 19 5 13 2 -7 2 -19 0 -25z m10 -60
c-3 -7 -5 -2 -5 12 0 14 2 19 5 13 2 -7 2 -19 0 -25z m15 -43 c3 -13 1 -22 -3
-19 -9 5 -13 44 -5 44 2 0 6 -11 8 -25z m809 -52 c-12 -20 -14 -14 -5 12 4 9
9 14 11 11 3 -2 0 -13 -6 -23z m-783 -59 c-3 -14 -5 -12 -10 9 -3 19 -2 25 4
19 6 -6 8 -18 6 -28z m763 13 c-10 -9 -11 -8 -5 6 3 10 9 15 12 12 3 -3 0 -11
-7 -18z m46 -54 c-3 -10 -5 -4 -5 12 0 17 2 24 5 18 2 -7 2 -21 0 -30z m2123
2 c0 -5 -5 -3 -10 5 -5 8 -10 20 -10 25 0 6 5 3 10 -5 5 -8 10 -19 10 -25z
m-2202 -5 c-7 -10 -14 -17 -17 -15 -4 4 18 35 25 35 2 0 -1 -9 -8 -20z m-718
-16 l35 -14 -35 5 c-19 3 -39 10 -44 15 -14 14 2 12 44 -6z m690 -8 c0 -2 -8
-10 -17 -17 -16 -13 -17 -12 -4 4 13 16 21 21 21 13z m97 -38 c-3 -8 -6 -5 -6
6 -1 11 2 17 5 13 3 -3 4 -12 1 -19z m-190 -14 c-3 -3 -12 -4 -19 -1 -8 3 -5
6 6 6 11 1 17 -2 13 -5z m-44 -11 c-7 -2 -19 -2 -25 0 -7 3 -2 5 12 5 14 0 19
-2 13 -5z m-50 -10 c-7 -2 -21 -2 -30 0 -10 3 -4 5 12 5 17 0 24 -2 18 -5z
m-465 -28 c-3 -3 -9 2 -12 12 -6 14 -5 15 5 6 7 -7 10 -15 7 -18z m220 18
c-21 -2 -55 -2 -75 0 -21 2 -4 4 37 4 41 0 58 -2 38 -4z m62 3 c0 -3 -4 -8
-10 -11 -5 -3 -10 -1 -10 4 0 6 5 11 10 11 6 0 10 -2 10 -4z m88 -3 c-16 -2
-40 -2 -55 0 -16 2 -3 4 27 4 30 0 43 -2 28 -4z m140 -100 c-37 -92 -92 -215
-121 -273 -7 -14 -18 -25 -25 -25 -31 0 -250 340 -231 359 2 3 63 6 135 7 72
0 159 7 195 14 35 7 69 13 75 14 7 0 -6 -42 -28 -96z m2685 -153 c2 -131 2
-130 -64 -338 -60 -188 -184 -447 -307 -637 -25 -38 -126 -176 -225 -305 -168
-219 -239 -307 -189 -234 12 17 31 67 43 110 19 72 75 218 204 534 26 63 75
176 110 250 35 74 70 158 78 185 31 104 76 262 90 311 14 50 103 180 198 288
l44 49 8 -44 c5 -24 10 -100 10 -169z m-3033 -145 c0 -5 -5 -3 -10 5 -5 8 -10
20 -10 25 0 6 5 3 10 -5 5 -8 10 -19 10 -25z m2557 3 c-3 -7 -5 -2 -5 12 0 14
2 19 5 13 2 -7 2 -19 0 -25z m-1867 -28 c8 -5 11 -10 5 -10 -5 0 -21 10 -35
21 -24 20 -5 13 30 -11z m170 -177 c0 -13 -20 -19 -20 -5 0 4 -3 18 -6 32 -5
24 -5 24 10 6 9 -11 16 -26 16 -33z m1497 -15 c-3 -7 -5 -2 -5 12 0 14 2 19 5
13 2 -7 2 -19 0 -25z m-2243 -4 c3 -8 2 -12 -4 -9 -6 3 -10 10 -10 16 0 14 7
11 14 -7z m46 -74 c0 -5 -2 -10 -4 -10 -3 0 -8 5 -11 10 -3 6 -1 10 4 10 6 0
11 -4 11 -10z m771 -17 c13 -16 12 -17 -3 -4 -17 13 -22 21 -14 21 2 0 10 -8
17 -17z m-421 -117 c0 -2 -8 -10 -17 -17 -16 -13 -17 -12 -4 4 13 16 21 21 21
13z m880 -39 c25 -2 -40 -3 -145 -4 -104 0 -163 3 -130 6 56 6 172 5 275 -2z
m-340 -6 c0 -4 -11 -6 -25 -3 -14 2 -25 6 -25 8 0 2 11 4 25 4 14 0 25 -4 25
-9z m-147 -8 c-7 -2 -21 -2 -30 0 -10 3 -4 5 12 5 17 0 24 -2 18 -5z m1215
-28 c-3 -3 -9 2 -12 12 -6 14 -5 15 5 6 7 -7 10 -15 7 -18z m-1365 -2 c-18 -2
-48 -2 -65 0 -18 2 -4 4 32 4 36 0 50 -2 33 -4z m-353 -67 c0 -26 -6 -18 -14
19 -5 22 -4 26 4 15 5 -8 10 -24 10 -34z m-57 14 c3 -11 1 -18 -4 -14 -5 3 -9
12 -9 20 0 20 7 17 13 -6z m24 -12 c-3 -8 -6 -5 -6 6 -1 11 2 17 5 13 3 -3 4
-12 1 -19z m1571 -133 c-3 -3 -9 2 -12 12 -6 14 -5 15 5 6 7 -7 10 -15 7 -18z
m-1137 -52 c13 -16 12 -17 -3 -4 -17 13 -22 21 -14 21 2 0 10 -8 17 -17z m393
6 c-6 -11 -31 -12 -37 -1 -3 4 6 8 19 8 13 1 21 -2 18 -7z m1160 -54 c-9 -21
-38 -126 -65 -233 -56 -223 -87 -294 -192 -454 -76 -114 -150 -186 -186 -180
-24 5 -61 50 -61 76 0 64 62 171 301 523 199 295 212 313 216 309 2 -1 -4 -20
-13 -41z m-1479 -13 c-3 -3 -11 0 -18 7 -9 10 -8 11 6 5 10 -3 15 -9 12 -12z
m95 -61 c0 -6 -4 -13 -10 -16 -5 -3 -10 -21 -10 -40 0 -19 -4 -36 -9 -39 -8
-6 -5 61 5 92 4 14 24 17 24 3z m-114 -19 c-5 15 -3 16 14 5 11 -6 20 -19 21
-27 3 -38 -4 -74 -16 -87 -11 -11 -15 -10 -20 7 -3 11 -3 25 1 31 4 8 3 9 -4
5 -7 -4 -12 -27 -12 -51 0 -37 -3 -44 -19 -42 -11 0 -18 5 -15 9 12 19 31 98
24 98 -5 0 -16 -22 -25 -50 -9 -27 -21 -52 -26 -55 -10 -7 -12 8 -2 19 11 11
32 79 27 88 -3 4 2 8 10 8 11 0 16 10 16 32 0 31 1 31 16 12 13 -16 15 -16 10
-2z m120 -29 c-10 -10 -19 5 -10 18 6 11 8 11 12 0 2 -7 1 -15 -2 -18z m-53
-23 c-3 -12 -8 -19 -11 -16 -5 6 5 36 12 36 2 0 2 -9 -1 -20z m-213 -110 l-11
-25 6 25 c2 14 5 36 6 50 l2 25 4 -25 c2 -14 -1 -37 -7 -50z m67 48 c-3 -8 -6
-5 -6 6 -1 11 2 17 5 13 3 -3 4 -12 1 -19z m-25 -40 c-9 -35 -17 -26 -13 15 3
31 6 37 11 22 4 -11 5 -28 2 -37z m818 7 c20 -24 6 -28 -15 -5 -10 11 -13 20
-8 20 6 0 16 -7 23 -15z m-180 -59 c0 -5 -7 -1 -15 10 -8 10 -14 24 -14 29 0
6 6 1 14 -9 8 -11 15 -24 15 -30z m40 -801 c19 -26 22 -27 17 -8 -5 22 -4 22
24 7 16 -8 29 -18 29 -22 0 -4 29 -29 65 -57 43 -34 66 -59 71 -78 8 -39 0
-43 -34 -18 -17 12 -35 21 -40 21 -6 0 -29 26 -51 57 -44 62 -58 62 -16 0 14
-20 23 -37 21 -37 -5 0 -99 134 -120 170 -11 19 3 5 34 -35z m301 -462 c13
-16 12 -17 -3 -4 -17 13 -22 21 -14 21 2 0 10 -8 17 -17z m69 3 c0 -2 -8 -10
-17 -17 -16 -13 -17 -12 -4 4 13 16 21 21 21 13z m-40 -36 c0 -5 -2 -10 -4
-10 -3 0 -8 5 -11 10 -3 6 -1 10 4 10 6 0 11 -4 11 -10z m-1716 -1305 c24 -38
94 -149 156 -245 100 -157 149 -228 252 -367 22 -30 29 -48 24 -65 -3 -13 -42
-79 -86 -148 -44 -69 -80 -130 -80 -136 0 -7 -29 -13 -72 -17 -67 -4 -159 -34
-172 -56 -3 -4 -52 2 -108 15 -153 34 -324 54 -499 57 l-155 2 3 99 3 99 40
35 c83 70 98 145 55 272 -14 40 -25 77 -25 81 0 4 33 49 72 101 100 128 271
373 347 497 l64 102 69 -128 c38 -70 89 -159 112 -198z m5329 -52 c58 -102
144 -221 220 -306 l60 -69 -6 -110 c-8 -133 3 -192 43 -233 l30 -31 -59 -51
c-39 -35 -77 -83 -115 -147 -32 -53 -59 -96 -61 -96 -1 0 -21 31 -44 68 -39
65 -41 72 -41 148 -1 149 -30 208 -122 252 -33 15 -58 34 -58 42 0 8 7 38 15
65 18 57 70 364 80 473 4 39 8 72 10 72 2 0 23 -35 48 -77z"/>
<path d="M4448 7173 c12 -2 32 -2 45 0 12 2 2 4 -23 4 -25 0 -35 -2 -22 -4z"/>
<path d="M5913 6958 c-30 -33 -97 -146 -170 -285 -61 -118 -63 -125 -63 -196
0 -52 5 -79 16 -93 15 -19 16 -19 9 1 -17 49 -14 56 7 15 33 -67 31 -137 -5
-184 -40 -52 -76 -145 -70 -179 8 -39 36 -35 86 14 41 40 41 40 10 24 -18 -8
-33 -13 -33 -10 0 3 42 26 94 50 150 72 186 126 191 290 2 94 -8 137 -43 183
-45 59 -147 93 -180 60 -9 -9 -12 -9 -12 0 0 7 9 21 19 31 11 11 16 23 13 27
-4 4 -2 4 4 1 17 -9 94 31 134 69 19 19 42 34 51 34 27 0 85 -73 109 -136 42
-113 15 -310 -61 -439 -28 -46 -28 -48 -4 -20 72 85 104 208 104 410 0 147
-14 226 -49 275 -10 14 -18 29 -18 34 -1 15 -61 46 -90 46 -17 0 -37 -9 -49
-22z m196 -288 c0 -9 -4 -8 -9 5 -5 11 -9 27 -9 35 0 9 4 8 9 -5 5 -11 9 -27
9 -35z m-342 -372 c-3 -7 -5 -2 -5 12 0 14 2 19 5 13 2 -7 2 -19 0 -25z m-16
-61 c-10 -9 -11 -8 -5 6 3 10 9 15 12 12 3 -3 0 -11 -7 -18z"/>
<path d="M4216 6569 c-88 -36 -127 -75 -94 -95 7 -5 9 -2 5 9 -4 11 -2 14 9
10 10 -4 12 0 8 11 -4 9 -3 16 2 15 5 -1 31 7 57 19 53 24 63 26 70 15 2 -5 2
-2 1 5 -2 6 1 12 6 12 6 0 10 5 10 10 0 14 -18 12 -74 -11z"/>
<path d="M4725 6550 c-3 -5 -1 -10 4 -10 6 0 11 5 11 10 0 6 -2 10 -4 10 -3 0
-8 -4 -11 -10z"/>
<path d="M4220 6530 c-18 -12 -2 -12 25 0 13 6 15 9 5 9 -8 0 -22 -4 -30 -9z"/>
<path d="M4250 6500 c-8 -5 -10 -10 -5 -10 6 0 17 5 25 10 8 5 11 10 5 10 -5
0 -17 -5 -25 -10z"/>
<path d="M4080 6280 c14 -11 20 -20 15 -20 -6 0 -16 5 -23 12 -6 6 -14 9 -17
6 -13 -12 121 -75 148 -70 4 1 7 -2 7 -8 0 -5 5 -10 12 -10 6 0 3 8 -7 20 -10
11 -21 17 -25 15 -5 -3 -10 -2 -12 2 -1 5 -24 23 -50 41 -50 34 -90 45 -48 12z"/>
<path d="M2740 6390 c-13 -8 -12 -10 3 -10 9 0 17 5 17 10 0 12 -1 12 -20 0z"/>
<path d="M2650 6280 c0 -5 5 -10 11 -10 5 0 7 5 4 10 -3 6 -8 10 -11 10 -2 0
-4 -4 -4 -10z"/>
<path d="M9466 9348 c-14 -19 -16 -59 -14 -258 l2 -235 6 242 c3 143 9 246 15
252 6 6 64 12 130 14 l120 3 -122 2 c-116 2 -123 1 -137 -20z"/>
<path d="M9803 9363 c9 -2 23 -2 30 0 6 3 -1 5 -18 5 -16 0 -22 -2 -12 -5z"/>
<path d="M9948 9363 c7 -3 16 -2 19 1 4 3 -2 6 -13 5 -11 0 -14 -3 -6 -6z"/>
<path d="M9998 9363 c12 -2 30 -2 40 0 9 3 -1 5 -23 4 -22 0 -30 -2 -17 -4z"/>
<path d="M10073 9363 c9 -2 25 -2 35 0 9 3 1 5 -18 5 -19 0 -27 -2 -17 -5z"/>
<path d="M10142 9315 c0 -16 2 -22 5 -12 2 9 2 23 0 30 -3 6 -5 -1 -5 -18z"/>
<path d="M9477 9303 c-6 -11 -8 -147 -2 -141 5 5 14 148 9 148 -1 0 -5 -3 -7
-7z"/>
<path d="M9432 8922 c-1 -230 2 -370 8 -382 10 -18 28 -19 334 -20 l324 0 26
31 c26 30 26 31 24 197 l-2 167 -6 -170 -5 -170 -300 -3 c-165 -1 -310 0 -322
3 -14 3 -26 17 -33 38 l-10 32 5 -39 c2 -21 6 -40 8 -43 3 -2 148 -4 323 -3
227 0 315 -3 308 -10 -8 -8 -109 -11 -310 -10 -329 1 -344 3 -344 58 0 16 -4
32 -10 38 -6 6 -11 137 -13 329 l-2 320 -3 -363z m31 -382 c-6 -7 -23 23 -23
40 0 8 6 4 13 -10 8 -14 12 -27 10 -30z"/>
<path d="M10144 9120 c0 -91 2 -128 3 -82 2 45 2 119 0 165 -1 45 -3 8 -3 -83z"/>
<path d="M9702 9114 c-12 -8 -22 -20 -22 -26 0 -7 6 -3 14 8 12 15 31 20 98
25 l83 6 -75 1 c-54 2 -82 -2 -98 -14z"/>
<path d="M9935 8997 l0 -122 -107 -3 -108 -3 0 116 c0 63 -3 115 -7 115 -5 0
-7 -55 -5 -122 3 -108 2 -121 -11 -104 -8 11 -12 32 -11 48 2 18 0 27 -6 23
-9 -6 -8 -34 3 -90 4 -18 13 -20 109 -23 94 -2 107 0 131 18 27 21 27 23 27
140 0 65 -3 121 -7 123 -5 3 -8 -50 -8 -116z m-77 -154 c-27 -2 -69 -2 -95 0
-27 2 -5 3 47 3 52 0 74 -1 48 -3z"/>
<path d="M9471 9064 c0 -11 3 -14 6 -6 3 7 2 16 -1 19 -3 4 -6 -2 -5 -13z"/>
<path d="M9673 9040 c-1 -17 2 -30 7 -30 6 0 10 14 10 30 0 39 -14 39 -17 0z"/>
<path d="M9471 9024 c0 -11 3 -14 6 -6 3 7 2 16 -1 19 -3 4 -6 -2 -5 -13z"/>
<path d="M9805 8990 c-4 -7 -3 -16 3 -22 14 -14 45 -2 40 15 -6 16 -34 21 -43
7z"/>
<path d="M9470 8965 c0 -8 4 -15 10 -15 5 0 7 7 4 15 -4 8 -8 15 -10 15 -2 0
-4 -7 -4 -15z"/>
<path d="M9670 8970 c0 -5 5 -10 10 -10 6 0 10 5 10 10 0 6 -4 10 -10 10 -5 0
-10 -4 -10 -10z"/>
<path d="M10141 8934 c0 -11 3 -14 6 -6 3 7 2 16 -1 19 -3 4 -6 -2 -5 -13z"/>
<path d="M9472 8875 c0 -16 2 -22 5 -12 2 9 2 23 0 30 -3 6 -5 -1 -5 -18z"/>
<path d="M9453 8810 c0 -25 2 -35 4 -22 2 12 2 32 0 45 -2 12 -4 2 -4 -23z"/>
<path d="M9453 8715 c0 -27 2 -38 4 -22 2 15 2 37 0 50 -2 12 -4 0 -4 -28z"/>
<path d="M9471 8724 c0 -11 3 -14 6 -6 3 7 2 16 -1 19 -3 4 -6 -2 -5 -13z"/>
<path d="M710 8140 c8 -5 20 -10 25 -10 6 0 3 5 -5 10 -8 5 -19 10 -25 10 -5
0 -3 -5 5 -10z"/>
<path d="M780 8110 c19 -11 40 -19 45 -19 6 0 -6 8 -25 19 -19 11 -39 19 -45
19 -5 0 6 -8 25 -19z"/>
<path d="M895 8060 c33 -16 65 -29 70 -29 13 1 -107 57 -120 57 -5 0 17 -13
50 -28z"/>
<path d="M1031 8002 c95 -45 89 -29 88 -249 -1 -106 1 -197 5 -200 3 -4 6 84
6 193 0 145 -3 205 -12 217 -12 15 -120 68 -136 66 -4 0 18 -13 49 -27z"/>
<path d="M730 7100 c0 -5 7 -10 16 -10 8 0 12 5 9 10 -3 6 -10 10 -16 10 -5 0
-9 -4 -9 -10z"/>
<path d="M746 6994 c-5 -13 12 -34 28 -34 5 0 2 6 -9 13 -11 9 -14 16 -8 20 6
4 22 -2 35 -13 19 -14 25 -15 25 -5 0 8 -4 12 -8 9 -4 -2 -10 0 -13 5 -4 5 2
11 11 14 10 2 1 4 -19 3 -21 0 -39 -5 -42 -12z"/>
<path d="M840 6990 c8 -5 23 -10 33 -10 10 0 16 -4 13 -8 -3 -5 9 -6 27 -4 30
5 28 6 -23 18 -67 16 -69 16 -50 4z"/>
<path d="M831 6964 c0 -11 3 -14 6 -6 3 7 2 16 -1 19 -3 4 -6 -2 -5 -13z"/>
<path d="M784 6949 c-4 -7 -3 -9 4 -5 5 3 13 0 15 -6 4 -9 6 -10 6 -1 1 17
-16 25 -25 12z"/>
<path d="M860 6950 c0 -5 5 -10 11 -10 5 0 7 5 4 10 -3 6 -8 10 -11 10 -2 0
-4 -4 -4 -10z"/>
<path d="M900 6950 c0 -5 7 -7 15 -4 8 4 15 8 15 10 0 2 -7 4 -15 4 -8 0 -15
-4 -15 -10z"/>
<path d="M919 6919 c-6 -13 -7 -19 -1 -15 6 3 13 -2 15 -11 3 -10 5 -3 4 15
-1 38 -3 39 -18 11z"/>
<path d="M893 6866 c32 -29 44 -32 44 -11 0 8 -4 12 -9 9 -5 -3 -21 2 -36 11
l-27 16 28 -25z"/>
<path d="M800 6855 c16 -19 26 -19 34 1 5 14 4 15 -9 4 -10 -8 -15 -9 -15 -1
0 6 -5 11 -11 11 -8 0 -8 -5 1 -15z"/>
<path d="M850 6836 c7 -7 14 -6 21 1 9 9 7 12 -9 10 -14 -1 -18 -5 -12 -11z"/>
<path d="M898 6718 c6 -6 18 -8 28 -6 14 3 12 5 -9 10 -19 3 -25 2 -19 -4z"/>
</g>
</svg>
